<svg height="512" viewBox="0 0 64 64" width="512" xmlns="http://www.w3.org/2000/svg"><rect fill="#44add8" height="26" rx="3" width="40" x="19" y="35"/><path d="m22 35a3 3 0 0 0 -3 3v7h23a5.006 5.006 0 0 0 5-5v-5z" fill="#3890ce"/><path d="m59 38a3 3 0 0 0 -3-3h-34a3 3 0 0 0 -3 3v5h40z" fill="#3890ce"/><path d="m54 38h2v2h-2z" fill="#eb4042"/><path d="m50 38h2v2h-2z" fill="#fde700"/><path d="m47 40v-5h-25a3 3 0 0 0 -3 3v5h26.974a4.948 4.948 0 0 0 1.026-3z" fill="#2275ad"/><rect fill="#44add8" height="40" rx="3" width="40" x="5" y="3"/><path d="m45 6a3 3 0 0 0 -3-3h-34a3 3 0 0 0 -3 3v5h40z" fill="#3890ce"/><path d="m8 6h2v2h-2z" fill="#eb4042"/><path d="m12 6h2v2h-2z" fill="#fde700"/><path d="m16 6h2v2h-2z" fill="#88bf40"/><path d="m36 19h4a0 0 0 0 1 0 0v8a0 0 0 0 1 0 0h-4a4 4 0 0 1 -4-4 4 4 0 0 1 4-4z" fill="#ef5249"/><path d="m50 29-10-2v-8l10-2z" fill="#ccdce5"/><path d="m36 27h4a0 0 0 0 1 0 0v9a2 2 0 0 1 -2 2 2 2 0 0 1 -2-2v-9a0 0 0 0 1 0 0z" fill="#ccdce5"/><rect fill="#ef5249" height="16" rx="2" width="4" x="50" y="15"/><path d="m36 34v2a2 2 0 0 0 4 0v-2z" fill="#ef5249"/><path d="m10 16h17v14h-17z" fill="#ef5249"/><path d="m16 20v6l6-3z" fill="#e9f0f1"/><g fill="#a1dbe8"><path d="m9 33h2v2h-2z"/><path d="m13 33h15v2h-15z"/><path d="m9 37h19v2h-19z"/><path d="m44 47h2v2h-2z"/><path d="m48 47h7v2h-7z"/><path d="m44 51h11v2h-11z"/><path d="m44 55h11v2h-11z"/></g><path d="m24 48h16v8h-16z" fill="#ccdce5"/><path d="m24 48 8 4 8-4z" fill="#abbac2"/></svg>