<?xml version="1.0" encoding="iso-8859-1"?>
<!-- Generator: Adobe Illustrator 19.0.0, SVG Export Plug-In . SVG Version: 6.00 Build 0)  -->
<svg xmlns="http://www.w3.org/2000/svg" xmlns:xlink="http://www.w3.org/1999/xlink" version="1.1" id="Layer_1" x="0px" y="0px" viewBox="0 0 512 512" style="enable-background:new 0 0 512 512;" xml:space="preserve" width="512" height="512">
<g>
	<polygon style="fill:#596C76;" points="30,121 0,121 0,61 60,61 60,91 30,91  "/>
	<polygon style="fill:#465A61;" points="60,451 0,451 0,391 30,391 30,421 60,421  "/>
	<polygon style="fill:#596C76;" points="512,121 482,121 482,91 452,91 452,61 512,61  "/>
	<polygon style="fill:#465A61;" points="512,451 452,451 452,421 482,421 482,391 512,391  "/>
	<rect x="60" y="121" style="fill:#596C76;" width="30" height="270"/>
	<rect x="121" y="121" style="fill:#596C76;" width="30" height="270"/>
	<rect x="301" y="121" style="fill:#596C76;" width="30" height="270"/>
	<path style="fill:#596C76;" d="M181,121v270h90V121H181z"/>
	<path style="fill:#596C76;" d="M362,121v270h90V121H362z"/>
	<rect x="60" y="256" style="fill:#465A61;" width="30" height="135"/>
	<rect x="121" y="256" style="fill:#465A61;" width="30" height="135"/>
	<rect x="181" y="256" style="fill:#465A61;" width="90" height="135"/>
	<rect x="301" y="256" style="fill:#465A61;" width="30" height="135"/>
	<rect x="362" y="256" style="fill:#465A61;" width="90" height="135"/>
	<rect y="241" style="fill:#FF9100;" width="512" height="30"/>
	<rect y="256" style="fill:#FF641A;" width="512" height="15"/>
</g>















</svg>
