<svg xmlns="http://www.w3.org/2000/svg" xmlns:xlink="http://www.w3.org/1999/xlink" width="64" height="64" id="credit-card"><defs><path id="a" d="M.06 64V.04H64V64z"></path></defs><g fill="none" fill-rule="evenodd"><path fill="#FFFFFE" d="M30 39a2 2 0 1 1 .001 3.999A2 2 0 0 1 30 39zm8 0a2 2 0 1 1 .001 3.999A2 2 0 0 1 38 39zm8 0a2 2 0 1 1 .001 3.999A2 2 0 0 1 46 39zm-34 4a4 4 0 0 0 4 4h32a4 4 0 0 0 4-4V31H12v12z"></path><mask id="b" fill="#fff"><use xlink:href="#a"></use></mask><path fill="#FFFFFE" d="M48 19H16a4 4 0 0 0-4 4v2h40v-2a4 4 0 0 0-4-4" mask="url(#b)"></path><path fill="#4C5665" d="M52 25H12v-2a4 4 0 0 1 4-4h32a4 4 0 0 1 4 4v2zm0 18a4 4 0 0 1-4 4H16a4 4 0 0 1-4-4V31h40v12zM32 0C14.327 0 0 14.327 0 32c0 17.673 14.327 32 32 32 17.673 0 32-14.327 32-32C64 14.327 49.673 0 32 0z" mask="url(#b)"></path><path fill="#4C5665" d="M38 43a2 2 0 1 0 .001-3.999A2 2 0 0 0 38 43M46 43a2 2 0 1 0 .001-3.999A2 2 0 0 0 46 43M30 43a2 2 0 1 0 .001-3.999A2 2 0 0 0 30 43"></path></g></svg>