<svg id="Capa_1" enable-background="new 0 0 512 512" height="512" viewBox="0 0 512 512" width="512" xmlns="http://www.w3.org/2000/svg"><path d="m412.241 170.667c0-10.554-1.054-21.037-3.139-31.294l19.424-11.214-49.449-85.648-19.454 11.231c-15.801-14.018-34.217-24.664-54.174-31.316v-22.426h-49.449l-21.333 170.667 21.333 170.666h49.449v-22.425c19.958-6.653 38.373-17.298 54.174-31.316l19.454 11.231 49.449-85.648-19.424-11.215c2.085-10.256 3.139-20.739 3.139-31.293z" fill="#7982e9"/><path d="m206.551 0v22.424c-19.957 6.653-38.373 17.298-54.174 31.316l-19.454-11.231-49.449 85.648 19.424 11.214c-2.085 10.257-3.139 20.74-3.139 31.294s1.054 21.037 3.139 31.294l-19.424 11.215 49.449 85.648 19.454-11.231c15.801 14.018 34.216 24.663 54.174 31.316v22.425h49.449v-341.332z" fill="#8993ed"/><path d="m256 102.333-9.226 68.333 9.226 68.334c37.679 0 68.333-30.654 68.333-68.333s-30.654-68.334-68.333-68.334z" fill="#f7f0eb"/><path d="m187.667 170.667c0 37.679 30.654 68.333 68.333 68.333v-136.667c-37.679 0-68.333 30.654-68.333 68.334z" fill="#fffbf5"/><path d="m452.333 230.5-56-6.001-67.232 6.001 9.843 100.167 59.389 5 54-5z" fill="#9ccefd"/><path d="m452.333 202.333h-126l2.768 28.167h123.232z" fill="#e7e7e7"/><path d="m452.333 330.667h-113.389l13.056 132.848h138.091v-122.182z" fill="#e7e7e7"/><path d="m356.333 172.667h-100.333l-10.667 147.333 10.667 143.515h100.333z" fill="#fdae02"/><path d="m21.909 172.667v121.666l10.001 15-10.001 15.001v139.181h234.091v-290.848z" fill="#fdcb02"/><ellipse cx="386.909" cy="453.364" fill="#f7f0eb" rx="43.636" ry="43.636" transform="matrix(.383 -.924 .924 .383 -180.008 637.326)"/><path d="m386.909 512c-32.332 0-58.637-26.304-58.637-58.636s26.305-58.636 58.637-58.636 58.637 26.304 58.637 58.636-26.305 58.636-58.637 58.636zm0-87.273c-15.79 0-28.637 12.846-28.637 28.636s12.847 28.636 28.637 28.636 28.637-12.846 28.637-28.636-12.847-28.636-28.637-28.636z" fill="#32393f"/><ellipse cx="125.091" cy="453.364" fill="#fffbf5" rx="43.636" ry="43.636" transform="matrix(.924 -.383 .383 .924 -163.973 82.38)"/><path d="m125.091 512c-32.332 0-58.637-26.304-58.637-58.636s26.305-58.636 58.637-58.636 58.637 26.304 58.637 58.636c-.001 32.332-26.305 58.636-58.637 58.636zm0-87.273c-15.79 0-28.637 12.846-28.637 28.636s12.847 28.636 28.637 28.636 28.637-12.846 28.637-28.636c-.001-15.79-12.847-28.636-28.637-28.636z" fill="#474f54"/><path d="m181.394 256.06-21.213 21.213 17.06 17.06h-155.332v30h155.332l-17.06 17.06 21.213 21.213 53.273-53.273z" fill="#fc5b3f"/></svg>