<svg height="512" viewBox="0 0 58 58" width="512" xmlns="http://www.w3.org/2000/svg"><g id="024---Fuel-Expenses" fill="none"><path id="Shape" d="m54 19c-.5522847 0-1-.4477153-1-1 .0428255-.8080187-.2594682-1.5962169-.8316257-2.1683743-.5721574-.5721575-1.3603556-.8744512-2.1683743-.8316257-.5522847 0-1-.4477153-1-1s.4477153-1 1-1c1.3410078-.0507877 2.6425.4596689 3.5914156 1.4085844.9489155.9489156 1.4593721 2.2504078 1.4085844 3.5914156 0 .5522847-.4477153 1-1 1z" fill="#56595e"/><path id="Shape" d="m51.5 58c-3.5880235-.0044079-6.4955921-2.9119765-6.5-6.5v-12.5h-8v-4h8v-15h4v15h2.5c3.5880235.0044079 6.4955921 2.9119765 6.5 6.5v10c-.0044079 3.5880235-2.9119765 6.4955921-6.5 6.5zm-2.5-19v12.5c0 1.3807119 1.1192881 2.5 2.5 2.5s2.5-1.1192881 2.5-2.5v-10c0-1.3807119-1.1192881-2.5-2.5-2.5z" fill="#35495e"/><rect id="Rectangle-path" fill="#7f8c8d" height="8" rx="1" width="6" x="44" y="12.002"/><path id="Shape" d="m49 12c-.0719317-3.29656211 1.6106169-6.38377221 4.42-8.11.8335281-.57649185 1.1364125-1.66603434.72-2.59l-.09-.19c-.2241398-.50454767-.660095-.88402074-1.190727-1.03645682-.5306319-.15243607-1.1015212-.062202-1.559273.24645682-4.0135075 2.50857205-6.4059627 6.94833639-6.294 11.68" fill="#bdc3c7"/><path id="Rectangle-path" d="m43 35h2v4h-2z" fill="#2c3e50"/><path id="Rectangle-path" d="m49 35h2v4h-2z" fill="#2c3e50"/><rect id="Rectangle-path" fill="#2980ba" height="58" rx="4" width="40"/><rect id="Rectangle-path" fill="#3b97d3" height="58" rx="4" width="36" x="2"/><rect id="Rectangle-path" fill="#26b99a" height="10" rx="1" width="32" x="4" y="5"/><g fill="#67b9cc"><rect id="Rectangle-path" height="5" rx="1" width="5" x="4" y="19"/><rect id="Rectangle-path" height="5" rx="1" width="5" x="13" y="19"/><rect id="Rectangle-path" height="5" rx="1" width="5" x="22" y="19"/><rect id="Rectangle-path" height="5" rx="1" width="5" x="31" y="19"/><rect id="Rectangle-path" height="5" rx="1" width="5" x="4" y="29"/><rect id="Rectangle-path" height="5" rx="1" width="5" x="13" y="29"/><rect id="Rectangle-path" height="5" rx="1" width="5" x="22" y="29"/><rect id="Rectangle-path" height="5" rx="1" width="5" x="31" y="29"/><rect id="Rectangle-path" height="5" rx="1" width="5" x="4" y="39"/><rect id="Rectangle-path" height="5" rx="1" width="5" x="13" y="39"/><rect id="Rectangle-path" height="5" rx="1" width="5" x="22" y="39"/></g><rect id="Rectangle-path" fill="#f3d55b" height="16" rx="1" width="5" x="31" y="39"/><rect id="Rectangle-path" fill="#67b9cc" height="5" rx="1" width="5" x="4" y="49"/><rect id="Rectangle-path" fill="#67b9cc" height="5" rx="1" width="5" x="13" y="49"/><rect id="Rectangle-path" fill="#67b9cc" height="5" rx="1" width="5" x="22" y="49"/><path id="Shape" d="m24 10c-.5522847 0-1-.44771525-1-1v-1c0-.55228475.4477153-1 1-1s1 .44771525 1 1v1c0 .55228475-.4477153 1-1 1z" fill="#3f5c6c"/><path id="Shape" d="m24 13c-.5522847 0-1-.4477153-1-1v-1c0-.5522847.4477153-1 1-1s1 .4477153 1 1v1c0 .5522847-.4477153 1-1 1z" fill="#3f5c6c"/><path id="Shape" d="m28 10c-.5522847 0-1-.44771525-1-1v-1c0-.55228475.4477153-1 1-1s1 .44771525 1 1v1c0 .55228475-.4477153 1-1 1z" fill="#3f5c6c"/><path id="Shape" d="m28 13c-.5522847 0-1-.4477153-1-1v-1c0-.5522847.4477153-1 1-1s1 .4477153 1 1v1c0 .5522847-.4477153 1-1 1z" fill="#3f5c6c"/><path id="Shape" d="m32 10c-.5522847 0-1-.44771525-1-1v-1c0-.55228475.4477153-1 1-1s1 .44771525 1 1v1c0 .55228475-.4477153 1-1 1z" fill="#3f5c6c"/><path id="Shape" d="m32 13c-.5522847 0-1-.4477153-1-1v-1c0-.5522847.4477153-1 1-1s1 .4477153 1 1v1c0 .5522847-.4477153 1-1 1z" fill="#3f5c6c"/></g></svg>