<svg id="Layer_1" enable-background="new 0 0 512 512" height="512" viewBox="0 0 512 512" width="512" xmlns="http://www.w3.org/2000/svg"><path d="m512 316v180h-512v-270h302z" fill="#596c76"/><path d="m512 316v180h-256v-270h46z" fill="#465a61"/><g fill="#f0f9fb"><path d="m61 346h30v30h-30z"/><path d="m61 406h30v30h-30z"/><path d="m121 346h30v30h-30z"/><path d="m181 346h30v30h-30z"/><path d="m241 346h91v30h-91z"/><path d="m61 286h30v30h-30z"/><path d="m121 286h30v30h-30z"/><path d="m181 286h30v30h-30z"/><path d="m241 286h30v30h-30z"/></g><path d="m422 406h30v30h-30z" fill="#26bfbf"/><path d="m362 406h30v30h-30z" fill="#26bfbf"/><path d="m271 406h61v30h-61z" fill="#d7f0f5"/><path d="m121 406h120v30h-120z" fill="#f0f9fb"/><path d="m392 346h30v30h-30z" fill="#26bfbf"/><path d="m482 91v60h-30v-60c0-24.901-20.099-45-45-45s-45 20.099-45 45v60h-30v-60c0-41.4 33.6-75 75-75s75 33.6 75 75z" fill="#596c76"/><path d="m482 91v60h-30v-60c0-24.901-20.099-45-45-45v-30c41.4 0 75 33.6 75 75z" fill="#465a61"/><path d="m302 136v180h210v-180z" fill="#fdbf00"/><path d="m407 136h105v180h-105z" fill="#ff9100"/><path d="m392 196h30v60h-30z" fill="#596c76"/><path d="m407 196h15v60h-15z" fill="#465a61"/><path d="m256 286h15v30h-15z" fill="#d7f0f5"/><path d="m256 346h76v30h-76z" fill="#d7f0f5"/></svg>