<svg xmlns="http://www.w3.org/2000/svg" xmlns:xlink="http://www.w3.org/1999/xlink" width="64" height="64" viewBox="0 0 64 64" id="briefcase"><defs><path id="a" d="M.06 64H64V.04H.06z"></path></defs><g fill="none" fill-rule="evenodd"><g><g><mask id="b" fill="#fff"><use xlink:href="#a"></use></mask><path fill="#FFFFFE" d="M40 30a4 4 0 0 1-4 4h-8a4 4 0 0 1-4-4v-2h4v2h8v-2h4v2zM26 19h12v-3H26v3zm22 0h-6v-3a4 4 0 0 0-4-4H26a4 4 0 0 0-4 4v3h-6a4 4 0 0 0-4 4v20a4 4 0 0 0 4 4h32a4 4 0 0 0 4-4V23a4 4 0 0 0-4-4z" mask="url(#b)"></path><path fill="#4C5665" d="M52 28v15a4 4 0 0 1-4 4H16a4 4 0 0 1-4-4V23a4 4 0 0 1 4-4h6v-3a4 4 0 0 1 4-4h12a4 4 0 0 1 4 4v3h6a4 4 0 0 1 4 4v5zM32 0C14.327 0 0 14.327 0 32c0 17.673 14.327 32 32 32 17.673 0 32-14.327 32-32C64 14.327 49.673 0 32 0z" mask="url(#b)"></path></g><path fill="#4C5665" d="M26 19h12v-3H26zM36 30h-8v-2h-4v2a4 4 0 004 4h8a4 4 0 004-4v-2h-4v2"></path></g></g></svg>