<svg id="Capa_1" enable-background="new 0 0 512 512" height="512" viewBox="0 0 512 512" width="512" xmlns="http://www.w3.org/2000/svg"><path d="m442.636 393.894c-14.116-27.923-34.755-52.763-59.686-71.834l-252.524-1.045c-25.32 19.041-46.299 43.974-60.666 72.102-15.072 29.506-22.713 61.372-22.713 94.714v24.169h417.908v-24.169c-.001-33.036-7.51-64.641-22.319-93.937z" fill="#575f64"/><path d="m292.678 229h143.161l-57.556 77.779h31.577l-153.568 204.888z" fill="#7c8388"/><path d="m464.954 487.831c0-33.036-7.509-64.641-22.318-93.937-14.116-27.923-34.755-52.763-59.686-71.834l-126.95-.525v190.465h208.954z" fill="#32393f"/><path d="m256.292 511.667 45.375-215.334h-88.667z" fill="#c4e945"/><path d="m256.292 511.667 45.375-215.334h-45.667v213.881z" fill="#9edb3d"/><path d="m219.629 229h-143.161l57.557 77.779h-31.578l153.568 204.888z" fill="#7c8388"/><path d="m292.678 229h143.161l-57.556 77.779h31.577l-153.568 204.888z" fill="#575f64"/><path d="m356.963 148.689-14.19-117.057c-1.598-13.186-10.282-24.368-22.663-29.18-12.38-4.815-26.336-2.432-36.42 6.212l-23.795 20.396c-2.256 1.934-5.532 1.935-7.792 0l-23.793-20.395c-10.083-8.645-24.041-11.026-36.42-6.213-12.381 4.812-21.065 15.994-22.663 29.18l-14.19 117.057z" fill="#575f64"/><path d="m349.298 144.909-183.209.016c-10.497 16.967-16.046 36.529-16.046 56.57 0 59.362 48.294 107.656 107.655 107.656s107.656-48.294 107.656-107.656c0-20.047-5.553-39.614-16.056-56.586z" fill="#ffdfcf"/><path d="m342.772 31.632c-1.598-13.186-10.282-24.368-22.663-29.18-12.38-4.815-26.335-2.432-36.419 6.212l-23.795 20.396c-1.128.967-2.512 1.451-3.895 1.451v118.178h100.962z" fill="#32393f"/><path d="m349.298 144.909-93.298.008v164.212c.566.009 1.131.022 1.699.022 59.361 0 107.656-48.294 107.656-107.656-.001-20.047-5.554-39.614-16.057-56.586z" fill="#ffcebf"/><path d="m111.444 137.887h289.112v29.962h-289.112z" fill="#7c8388"/><path d="m256 137.887h144.556v29.962h-144.556z" fill="#575f64"/></svg>