<svg xmlns="http://www.w3.org/2000/svg" xmlns:xlink="http://www.w3.org/1999/xlink" width="64" height="64" viewBox="0 0 64 64" id="bookshelf"><defs><path id="a" d="M31.947 64H.06V.04h63.773V64z"></path></defs><g fill="none" fill-rule="evenodd"><g><path fill="#FFFFFE" d="M39 43h8v-3h-8zM37 15c0-1.103-.897-2-2-2h-6c-1.103 0-2 .897-2 2v1h10v-1M27 37h10V19H27zM47 19c0-1.103-.897-2-2-2h-4c-1.103 0-2 .897-2 2v1h8v-1M39 37h8V23h-8zM27 43h10v-3H27zM25 23c0-1.103-.897-2-2-2h-4c-1.103 0-2 .897-2 2v1h8v-1M14 49h36a2 2 0 000-4H14a2 2 0 100 4M17 37h8V27h-8z"></path><g><mask id="b" fill="#fff"><use xlink:href="#a"></use></mask><path fill="#FFFFFE" d="M17 43h8v-3h-8z" mask="url(#b)"></path><path fill="#4C5665" d="M14 45h36a2 2 0 1 1 0 4H14a2 2 0 0 1 0-4zm3-2h8v-3h-8v3zm0-6h8V27h-8v10zm0-14c0-1.103.897-2 2-2h4c1.103 0 2 .897 2 2v1h-8v-1zm10 20h10v-3H27v3zm0-20v-4h10v18H27V23zm0-8c0-1.103.897-2 2-2h6c1.103 0 2 .897 2 2v1H27v-1zm12 28h8v-3h-8v3zm0-6h8V23h-8v14zm0-18c0-1.103.897-2 2-2h4c1.103 0 2 .897 2 2v1h-8v-1zm-7.167 45c17.674 0 32-14.327 32-32 0-17.673-14.326-32-32-32-17.673 0-32 14.327-32 32 0 17.673 14.327 32 32 32z" mask="url(#b)"></path></g></g></g></svg>