<svg height="512pt" viewBox="-83 0 512 512.0015" width="512pt" xmlns="http://www.w3.org/2000/svg"><path d="m258.5625 71.183594h-231.492188c-14.949218 0-27.070312 12.121094-27.070312 27.070312v386.679688c0 14.949218 12.121094 27.066406 27.070312 27.066406h231.492188c14.949219 0 27.066406-12.117188 27.066406-27.066406v-386.683594c0-14.949219-12.117187-27.066406-27.066406-27.066406zm0 0" fill="#919191"/><path d="m258.5625 71.183594h-26.726562v8.902344c4.355468 4.800781 7.003906 11.175781 7.003906 18.167968v386.679688c0 14.949218-12.117188 27.066406-27.066406 27.066406h46.789062c14.945312 0 27.066406-12.117188 27.066406-27.066406v-386.683594c0-14.949219-12.117187-27.066406-27.066406-27.066406zm0 0" fill="#7a7a7a"/><path d="m242.835938 512h-205.195313v-209.734375c0-10.308594 8.355469-18.664063 18.664063-18.664063h167.867187c10.308594 0 18.664063 8.355469 18.664063 18.664063zm0 0" fill="#68a1d7"/><g fill="#eeedee"><path d="m97.445312 347.527344h-20.238281c-2.382812 0-4.316406-1.933594-4.316406-4.3125v-20.242188c0-2.382812 1.933594-4.3125 4.316406-4.3125h20.238281c2.382813 0 4.3125 1.933594 4.3125 4.3125v20.242188c0 2.382812-1.929687 4.3125-4.3125 4.3125zm0 0"/><path d="m152.933594 347.527344h-20.238282c-2.382812 0-4.3125-1.933594-4.3125-4.3125v-20.242188c0-2.382812 1.929688-4.3125 4.3125-4.3125h20.238282c2.382812 0 4.316406 1.933594 4.316406 4.3125v20.242188c0 2.382812-1.933594 4.3125-4.316406 4.3125zm0 0"/><path d="m208.425781 347.527344h-20.238281c-2.382812 0-4.316406-1.933594-4.316406-4.3125v-20.242188c0-2.382812 1.933594-4.3125 4.316406-4.3125h20.238281c2.382813 0 4.3125 1.933594 4.3125 4.3125v20.242188c0 2.382812-1.929687 4.3125-4.3125 4.3125zm0 0"/><path d="m97.445312 403.5h-20.238281c-2.382812 0-4.316406-1.933594-4.316406-4.316406v-20.238282c0-2.382812 1.933594-4.3125 4.316406-4.3125h20.238281c2.382813 0 4.3125 1.933594 4.3125 4.3125v20.238282c0 2.382812-1.929687 4.316406-4.3125 4.316406zm0 0"/><path d="m152.933594 403.5h-20.238282c-2.382812 0-4.3125-1.933594-4.3125-4.316406v-20.238282c0-2.382812 1.929688-4.3125 4.3125-4.3125h20.238282c2.382812 0 4.316406 1.933594 4.316406 4.3125v20.238282c0 2.382812-1.933594 4.316406-4.316406 4.316406zm0 0"/><path d="m208.425781 403.5h-20.238281c-2.382812 0-4.316406-1.933594-4.316406-4.316406v-20.238282c0-2.382812 1.933594-4.3125 4.316406-4.3125h20.238281c2.382813 0 4.3125 1.933594 4.3125 4.3125v20.238282c0 2.382812-1.929687 4.316406-4.3125 4.316406zm0 0"/><path d="m97.445312 459.472656h-20.238281c-2.382812 0-4.316406-1.933594-4.316406-4.316406v-20.238281c0-2.382813 1.933594-4.3125 4.316406-4.3125h20.238281c2.382813 0 4.3125 1.929687 4.3125 4.3125v20.238281c0 2.382812-1.929687 4.316406-4.3125 4.316406zm0 0"/><path d="m152.933594 459.472656h-20.238282c-2.382812 0-4.3125-1.933594-4.3125-4.316406v-20.238281c0-2.382813 1.929688-4.3125 4.3125-4.3125h20.238282c2.382812 0 4.316406 1.929687 4.316406 4.3125v20.238281c0 2.382812-1.933594 4.316406-4.316406 4.316406zm0 0"/><path d="m208.425781 459.472656h-20.238281c-2.382812 0-4.316406-1.933594-4.316406-4.316406v-20.238281c0-2.382813 1.933594-4.3125 4.316406-4.3125h20.238281c2.382813 0 4.3125 1.929687 4.3125 4.3125v20.238281c0 2.382812-1.929687 4.316406-4.3125 4.316406zm0 0"/><path d="m99.816406 2.195312 6.632813 4.675782c.785156.554687 1.757812.554687 2.542969 0l9.152343-6.453125c.789063-.554688 1.757813-.554688 2.542969 0l9.148438 6.453125c.785156.554687 1.761718.554687 2.542968 0l9.152344-6.457032c.785156-.550781 1.757812-.550781 2.542969 0l9.15625 6.457032c.785156.554687 1.757812.554687 2.542969 0l9.15625-6.457032c.78125-.550781 1.753906-.550781 2.539062 0l9.160156 6.457032c.785156.554687 1.757813.554687 2.542969 0l6.644531-4.679688c1.679688-1.183594 3.789063.277344 3.789063 2.625v82.351563h-93.578125v-82.351563c0-2.347656 2.113281-3.808594 3.789062-2.621094zm0 0"/></g><path d="m96.027344 57.332031h93.578125v29.835938h-93.578125zm0 0" fill="#d6d5d6"/><path d="m219.121094 43.6875h-29.515625v43.480469h-93.578125v-43.480469h-29.519532c-7.023437 0-12.714843 5.691406-12.714843 12.71875v48.804688c0 7.027343 5.695312 12.71875 12.714843 12.71875h152.613282c7.023437 0 12.714844-5.695313 12.714844-12.71875v-48.804688c0-7.027344-5.691407-12.71875-12.714844-12.71875zm0 0" fill="#bdbdbd"/><path d="m325.84375 135.117188h-40.214844v317.59375h40.214844c11.105469 0 20.109375-9.003907 20.109375-20.109376v-277.378906c0-11.105468-9.003906-20.105468-20.109375-20.105468zm0 0" fill="#5c5c5c"/><path d="m285.628906 135.117188h29.648438v317.59375h-29.648438zm0 0" fill="#4a4a4a"/><path d="m215.339844 146.800781h-145.046875c-9.113281 0-16.5 7.386719-16.5 16.5v67.367188c0 9.113281 7.386719 16.496093 16.5 16.496093h145.046875c9.113281 0 16.496094-7.386718 16.496094-16.496093v-67.367188c0-9.113281-7.382813-16.5-16.496094-16.5zm0 0" fill="#58caee"/><path d="m215.339844 146.800781h-33.53125c9.109375 0 16.496094 7.386719 16.496094 16.5v67.367188c0 9.113281-7.386719 16.496093-16.496094 16.496093h33.53125c9.113281 0 16.496094-7.386718 16.496094-16.496093v-67.367188c0-9.113281-7.382813-16.5-16.496094-16.5zm0 0" fill="#4cafcf"/><path d="m307.542969 179.804688v223.699218c0 4.273438 3.460937 7.734375 7.734375 7.734375 4.269531 0 7.730468-3.460937 7.730468-7.734375v-223.699218c0-4.269532-3.460937-7.734376-7.730468-7.734376-4.273438 0-7.734375 3.464844-7.734375 7.734376zm0 0" fill="#bdbdbd"/><path d="m207.003906 94.902344h-128.378906c-4.269531 0-7.730469-3.464844-7.730469-7.734375 0-4.273438 3.460938-7.734375 7.730469-7.734375h128.378906c4.273438 0 7.734375 3.460937 7.734375 7.734375 0 4.269531-3.460937 7.734375-7.734375 7.734375zm0 0" fill="#5c5c5c"/></svg>