<?xml version="1.0" encoding="iso-8859-1"?>
<!-- Uploaded to: SVG Repo, www.svgrepo.com, Generator: SVG Repo Mixer Tools -->
<svg height="800px" width="800px" version="1.1" id="Layer_1" xmlns="http://www.w3.org/2000/svg" xmlns:xlink="http://www.w3.org/1999/xlink" 
	 viewBox="0 0 393.051 393.051" xml:space="preserve">
<path style="fill:#56ACE0;" d="M21.98,103.628h41.18v-29.22h-8.404c-6.012,0-10.925-4.848-10.925-10.925s4.848-10.925,10.925-10.925
	h283.539c6.012,0,10.925,4.848,10.925,10.925s-4.849,10.925-10.925,10.925h-8.404v29.22h41.115V23.467H21.98V103.628z"/>
<path style="fill:#FFFFFF;" d="M307.846,74.473H84.816V343.79c5.883-3.168,12.606-4.978,19.717-4.978
	c12.154,0,23.014,5.172,30.578,13.511c7.564-8.275,18.489-13.511,30.578-13.511c12.154,0,23.014,5.172,30.578,13.511
	c7.564-8.275,18.489-13.511,30.578-13.511c12.089,0,23.014,5.172,30.578,13.511c7.564-8.275,18.489-13.511,30.578-13.511
	c7.111,0,13.834,1.745,19.717,4.978L307.846,74.473L307.846,74.473z"/>
<path style="fill:#FFC10D;" d="M106.602,96.129v111.968h30.319c6.012,0,10.925,4.848,10.925,10.925
	c0,6.012-4.848,10.925-10.925,10.925h-30.319v23.079H121.6c6.012,0,10.925,4.848,10.925,10.925c0,6.012-4.848,10.925-10.925,10.925
	h-14.998v42.085c10.279,0.323,20.04,3.168,28.509,7.887c9.051-5.042,19.459-7.887,30.578-7.887c11.119,0,21.527,2.844,30.578,7.887
	c9.051-5.042,19.523-7.887,30.578-7.887c11.055,0,21.527,2.844,30.578,7.887c8.469-4.719,18.166-7.499,28.509-7.887V96.129H106.602z
	"/>
<path d="M194.586,202.731h0.065C195.038,202.667,194.65,202.667,194.586,202.731z"/>
<g>
	<path style="fill:#194F82;" d="M196.331,269.317c-12.347,0-22.497-10.15-22.497-22.497c0-6.012-4.848-10.925-10.925-10.925
		c-6.012,0-10.925,4.848-10.925,10.925c0,20.622,14.222,38.012,33.358,42.861v10.731c0,6.012,4.848,10.925,10.925,10.925
		c6.012,0,10.925-4.848,10.925-10.925v-10.731c19.135-4.848,33.358-22.238,33.358-42.861c0-24.436-21.527-44.154-45.964-44.154
		c-0.129,0-0.129,0-0.065,0c-11.572-0.905-20.687-10.602-20.687-22.432c0-12.347,10.02-22.497,22.497-22.497
		c12.347,0,22.497,10.15,22.497,22.497c0,6.012,4.848,10.925,10.925,10.925c6.012,0,10.925-4.848,10.925-10.925
		c0-20.622-14.222-38.012-33.358-42.861v-10.796c0-6.012-4.848-10.925-10.925-10.925c-6.077,0-10.925,4.848-10.925,10.925v10.796
		c-19.135,4.848-33.358,22.238-33.358,42.861c0,24.436,19.846,44.283,44.283,44.283c-0.388,0.065,0,0,0.065,0
		c11.572,0.905,22.303,10.537,22.303,22.238C218.828,259.297,208.679,269.317,196.331,269.317z"/>
	<path style="fill:#194F82;" d="M381.737,1.681H10.925C4.913,1.681,0,6.659,0,12.671v102.012c0,6.012,4.848,10.925,10.925,10.925
		H63.03v254.836c0,6.012,4.848,10.925,10.925,10.925s10.925-4.848,10.925-10.925c0-10.925,8.792-19.717,19.717-19.717
		s19.717,8.792,19.717,19.717c0,6.012,4.848,10.925,10.925,10.925s10.925-4.848,10.925-10.925c0-10.925,8.792-19.717,19.717-19.717
		s19.717,8.792,19.717,19.717c0,6.012,4.848,10.925,10.925,10.925c6.077,0,10.925-4.848,10.925-10.925
		c0-10.925,8.792-19.717,19.717-19.717s19.717,8.792,19.717,19.717c0,6.012,4.848,10.925,10.925,10.925
		c6.077,0,10.925-4.848,10.925-10.925c0-10.925,8.792-19.717,19.717-19.717c10.925,0,19.717,8.792,19.717,19.717l0,0l0,0l0,0l0,0
		l0,0l0,0l0,0l0,0l0,0l0,0c0.065,5.947,4.913,10.731,10.925,10.731s10.925-4.848,10.925-10.925V125.479h52.105
		c6.012,0,10.925-4.848,10.925-10.925V12.541C392.598,6.594,387.749,1.681,381.737,1.681z M84.816,74.473h223.03V343.79
		c-5.883-3.168-12.606-4.978-19.717-4.978c-12.154,0-23.014,5.172-30.578,13.511c-7.564-8.275-18.489-13.511-30.578-13.511
		c-12.089,0-23.014,5.172-30.578,13.511c-7.564-8.275-18.489-13.511-30.578-13.511c-12.089,0-23.014,5.172-30.578,13.511
		c-7.564-8.275-18.489-13.511-30.578-13.511c-7.111,0-13.834,1.745-19.717,4.978 M370.812,103.628h-41.18v-29.22h8.404
		c6.012,0,10.925-4.848,10.925-10.925s-4.848-10.925-10.925-10.925H54.626c-6.012,0-10.925,4.848-10.925,10.925
		s4.848,10.925,10.925,10.925h8.404v29.22h-41.18V23.467h348.962L370.812,103.628L370.812,103.628z"/>
</g>
</svg>